<svg width="72" height="24" viewBox="0 0 72 24" fill="none" xmlns="http://www.w3.org/2000/svg">
<g clip-path="url(#clip0_1_13542)">
<path d="M30.9727 12.834H33.1699C33.0996 13.6719 32.8652 14.4189 32.4668 15.0752C32.0684 15.7256 31.5088 16.2383 30.7881 16.6133C30.0674 16.9883 29.1914 17.1758 28.1602 17.1758C27.3691 17.1758 26.6572 17.0352 26.0244 16.7539C25.3916 16.4668 24.8496 16.0625 24.3984 15.541C23.9473 15.0137 23.6016 14.3779 23.3613 13.6338C23.127 12.8896 23.0098 12.0576 23.0098 11.1377V10.0742C23.0098 9.1543 23.1299 8.32227 23.3701 7.57812C23.6162 6.83398 23.9678 6.19824 24.4248 5.6709C24.8818 5.1377 25.4297 4.73047 26.0684 4.44922C26.7129 4.16797 27.4365 4.02734 28.2393 4.02734C29.2588 4.02734 30.1201 4.21484 30.8232 4.58984C31.5264 4.96484 32.0713 5.4834 32.458 6.14551C32.8506 6.80762 33.0908 7.56641 33.1787 8.42188H30.9814C30.9229 7.87109 30.7939 7.39941 30.5947 7.00684C30.4014 6.61426 30.1143 6.31543 29.7334 6.11035C29.3525 5.89941 28.8545 5.79395 28.2393 5.79395C27.7354 5.79395 27.2959 5.8877 26.9209 6.0752C26.5459 6.2627 26.2324 6.53809 25.9805 6.90137C25.7285 7.26465 25.5381 7.71289 25.4092 8.24609C25.2861 8.77344 25.2246 9.37695 25.2246 10.0566V11.1377C25.2246 11.7822 25.2803 12.3682 25.3916 12.8955C25.5088 13.417 25.6846 13.8652 25.9189 14.2402C26.1592 14.6152 26.4639 14.9053 26.833 15.1104C27.2021 15.3154 27.6445 15.418 28.1602 15.418C28.7871 15.418 29.2939 15.3184 29.6807 15.1191C30.0732 14.9199 30.3691 14.6299 30.5684 14.249C30.7734 13.8623 30.9082 13.3906 30.9727 12.834ZM39.1553 17.1758C38.4521 17.1758 37.8164 17.0615 37.248 16.833C36.6855 16.5986 36.2051 16.2734 35.8066 15.8574C35.4141 15.4414 35.1123 14.9521 34.9014 14.3896C34.6904 13.8271 34.585 13.2207 34.585 12.5703V12.2188C34.585 11.4746 34.6934 10.8008 34.9102 10.1973C35.127 9.59375 35.4287 9.07812 35.8154 8.65039C36.2021 8.2168 36.6592 7.88574 37.1865 7.65723C37.7139 7.42871 38.2852 7.31445 38.9004 7.31445C39.5801 7.31445 40.1748 7.42871 40.6846 7.65723C41.1943 7.88574 41.6162 8.20801 41.9502 8.62402C42.29 9.03418 42.542 9.52344 42.7061 10.0918C42.876 10.6602 42.9609 11.2871 42.9609 11.9727V12.8779H35.6133V11.3574H40.8691V11.1904C40.8574 10.8096 40.7812 10.4521 40.6406 10.1182C40.5059 9.78418 40.2979 9.51465 40.0166 9.30957C39.7354 9.10449 39.3604 9.00195 38.8916 9.00195C38.54 9.00195 38.2266 9.07812 37.9512 9.23047C37.6816 9.37695 37.4561 9.59082 37.2744 9.87207C37.0928 10.1533 36.9521 10.4932 36.8525 10.8916C36.7588 11.2842 36.7119 11.7266 36.7119 12.2188V12.5703C36.7119 12.9863 36.7676 13.373 36.8789 13.7305C36.9961 14.082 37.166 14.3896 37.3887 14.6533C37.6113 14.917 37.8809 15.125 38.1973 15.2773C38.5137 15.4238 38.874 15.4971 39.2783 15.4971C39.7881 15.4971 40.2422 15.3945 40.6406 15.1895C41.0391 14.9844 41.3848 14.6943 41.6777 14.3193L42.7939 15.4004C42.5889 15.6992 42.3223 15.9863 41.9941 16.2617C41.666 16.5312 41.2646 16.751 40.79 16.9209C40.3213 17.0908 39.7764 17.1758 39.1553 17.1758ZM46.7402 9.30078V17H44.6221V7.49023H46.6436L46.7402 9.30078ZM49.6494 7.42871L49.6318 9.39746C49.5029 9.37402 49.3623 9.35645 49.21 9.34473C49.0635 9.33301 48.917 9.32715 48.7705 9.32715C48.4072 9.32715 48.0879 9.37988 47.8125 9.48535C47.5371 9.58496 47.3057 9.73145 47.1182 9.9248C46.9365 10.1123 46.7959 10.3408 46.6963 10.6104C46.5967 10.8799 46.5381 11.1816 46.5205 11.5156L46.0371 11.5508C46.0371 10.9531 46.0957 10.3994 46.2129 9.88965C46.3301 9.37988 46.5059 8.93164 46.7402 8.54492C46.9805 8.1582 47.2793 7.85645 47.6367 7.63965C48 7.42285 48.4189 7.31445 48.8936 7.31445C49.0225 7.31445 49.1602 7.32617 49.3066 7.34961C49.459 7.37305 49.5732 7.39941 49.6494 7.42871ZM53.1035 9.30078V17H50.9854V7.49023H53.0068L53.1035 9.30078ZM56.0127 7.42871L55.9951 9.39746C55.8662 9.37402 55.7256 9.35645 55.5732 9.34473C55.4268 9.33301 55.2803 9.32715 55.1338 9.32715C54.7705 9.32715 54.4512 9.37988 54.1758 9.48535C53.9004 9.58496 53.6689 9.73145 53.4814 9.9248C53.2998 10.1123 53.1592 10.3408 53.0596 10.6104C52.96 10.8799 52.9014 11.1816 52.8838 11.5156L52.4004 11.5508C52.4004 10.9531 52.459 10.3994 52.5762 9.88965C52.6934 9.37988 52.8691 8.93164 53.1035 8.54492C53.3438 8.1582 53.6426 7.85645 54 7.63965C54.3633 7.42285 54.7822 7.31445 55.2568 7.31445C55.3857 7.31445 55.5234 7.32617 55.6699 7.34961C55.8223 7.37305 55.9365 7.39941 56.0127 7.42871ZM62.3848 15.0928V10.5576C62.3848 10.2178 62.3232 9.9248 62.2002 9.67871C62.0771 9.43262 61.8896 9.24219 61.6377 9.10742C61.3916 8.97266 61.0811 8.90527 60.7061 8.90527C60.3604 8.90527 60.0615 8.96387 59.8096 9.08105C59.5576 9.19824 59.3613 9.35645 59.2207 9.55566C59.0801 9.75488 59.0098 9.98047 59.0098 10.2324H56.9004C56.9004 9.85742 56.9912 9.49414 57.1729 9.14258C57.3545 8.79102 57.6182 8.47754 57.9639 8.20215C58.3096 7.92676 58.7227 7.70996 59.2031 7.55176C59.6836 7.39355 60.2227 7.31445 60.8203 7.31445C61.5352 7.31445 62.168 7.43457 62.7188 7.6748C63.2754 7.91504 63.7119 8.27832 64.0283 8.76465C64.3506 9.24512 64.5117 9.84863 64.5117 10.5752V14.8027C64.5117 15.2363 64.541 15.626 64.5996 15.9717C64.6641 16.3115 64.7549 16.6074 64.8721 16.8594V17H62.7012C62.6016 16.7715 62.5225 16.4814 62.4639 16.1299C62.4111 15.7725 62.3848 15.4268 62.3848 15.0928ZM62.6924 11.2168L62.71 12.5264H61.1895C60.7969 12.5264 60.4512 12.5645 60.1523 12.6406C59.8535 12.7109 59.6045 12.8164 59.4053 12.957C59.2061 13.0977 59.0566 13.2676 58.957 13.4668C58.8574 13.666 58.8076 13.8916 58.8076 14.1436C58.8076 14.3955 58.8662 14.627 58.9834 14.8379C59.1006 15.043 59.2705 15.2041 59.4932 15.3213C59.7217 15.4385 59.9971 15.4971 60.3193 15.4971C60.7529 15.4971 61.1309 15.4092 61.4531 15.2334C61.7812 15.0518 62.0391 14.832 62.2266 14.5742C62.4141 14.3105 62.5137 14.0615 62.5254 13.8271L63.2109 14.7676C63.1406 15.0078 63.0205 15.2656 62.8506 15.541C62.6807 15.8164 62.458 16.0801 62.1826 16.332C61.9131 16.5781 61.5879 16.7803 61.207 16.9385C60.832 17.0967 60.3984 17.1758 59.9062 17.1758C59.2852 17.1758 58.7314 17.0527 58.2451 16.8066C57.7588 16.5547 57.3779 16.2178 57.1025 15.7959C56.8271 15.3682 56.6895 14.8848 56.6895 14.3457C56.6895 13.8418 56.7832 13.3965 56.9707 13.0098C57.1641 12.6172 57.4453 12.2891 57.8145 12.0254C58.1895 11.7617 58.6465 11.5625 59.1855 11.4277C59.7246 11.2871 60.3398 11.2168 61.0312 11.2168H62.6924ZM68.8535 9.30078V17H66.7354V7.49023H68.7568L68.8535 9.30078ZM71.7627 7.42871L71.7451 9.39746C71.6162 9.37402 71.4756 9.35645 71.3232 9.34473C71.1768 9.33301 71.0303 9.32715 70.8838 9.32715C70.5205 9.32715 70.2012 9.37988 69.9258 9.48535C69.6504 9.58496 69.4189 9.73145 69.2314 9.9248C69.0498 10.1123 68.9092 10.3408 68.8096 10.6104C68.71 10.8799 68.6514 11.1816 68.6338 11.5156L68.1504 11.5508C68.1504 10.9531 68.209 10.3994 68.3262 9.88965C68.4434 9.37988 68.6191 8.93164 68.8535 8.54492C69.0938 8.1582 69.3926 7.85645 69.75 7.63965C70.1133 7.42285 70.5322 7.31445 71.0068 7.31445C71.1357 7.31445 71.2734 7.32617 71.4199 7.34961C71.5723 7.37305 71.6865 7.39941 71.7627 7.42871Z" fill="black"/>
<path d="M9 16.5L0 7.5M9 7.5L0 16.5" stroke="black" stroke-width="3" stroke-linecap="round"/>
</g>
<defs>
<clipPath id="clip0_1_13542">
<rect width="72" height="24" fill="white"/>
</clipPath>
</defs>
</svg>
