<?xml version="1.0" encoding="UTF-8"?>
<svg id="Capa_1" xmlns="http://www.w3.org/2000/svg" width="120" height="40" xmlns:xlink="http://www.w3.org/1999/xlink" viewBox="0 0 120 40">
  <defs>
    <clipPath id="clippath">
      <rect width="120" height="40" fill="none"/>
    </clipPath>
  </defs>
  <g clip-path="url(#clippath)">
    <g id="Grupo_905-2">
      <path id="Trazado_1492" d="M24.49,12.27c0,6.77-5.48,12.27-12.24,12.27S0,19.04,0,12.27,5.48,0,12.24,0c6.76,0,12.24,5.49,12.24,12.27h0" fill="#fff"/>
      <path id="Trazado_1493" d="M120,12.27c0,6.77-5.48,12.27-12.24,12.27s-12.24-5.49-12.24-12.27S100.99,0,107.76,0h0c6.76,0,12.24,5.49,12.24,12.27" fill="#fff"/>
      <path id="Trazado_1494" d="M78.87,40h0c-1.67,0-3.03-1.36-3.03-3.04h0V5.19c0-1.68,1.35-3.04,3.03-3.04,1.67,0,3.03,1.36,3.04,3.03h0v31.78c0,1.68-1.36,3.03-3.03,3.03" fill="#fff"/>
      <path id="Trazado_1495" d="M88.3,40h0c-1.67,0-3.03-1.36-3.03-3.04h0V5.19c0-1.68,1.35-3.04,3.03-3.04,1.67,0,3.03,1.36,3.04,3.03h0v31.78c0,1.68-1.36,3.03-3.03,3.03" fill="#fff"/>
      <path id="Trazado_1496" d="M69.43,40h0c-1.67,0-3.03-1.36-3.03-3.04h0V5.19c0-1.68,1.35-3.04,3.03-3.04,1.67,0,3.03,1.36,3.04,3.03h0v31.78c0,1.68-1.36,3.03-3.03,3.03" fill="#fff"/>
      <path id="Trazado_1497" d="M60,40h0c-1.67,0-3.03-1.36-3.03-3.04V5.19c0-1.68,1.35-3.04,3.03-3.04,1.67,0,3.03,1.36,3.04,3.03h0v31.78c0,1.68-1.36,3.03-3.03,3.03" fill="#fff"/>
      <path id="Trazado_1498" d="M50.57,40h0c-1.67,0-3.03-1.36-3.03-3.04V5.19c0-1.68,1.35-3.04,3.03-3.04,1.67,0,3.03,1.36,3.04,3.03h0v31.78c0,1.68-1.36,3.03-3.03,3.03" fill="#fff"/>
      <path id="Trazado_1499" d="M41.13,40h0c-1.67,0-3.03-1.36-3.03-3.04V5.19c0-1.68,1.36-3.04,3.04-3.03,1.67,0,3.03,1.36,3.03,3.03v31.77c0,1.68-1.36,3.03-3.03,3.03" fill="#fff"/>
      <path id="Trazado_1500" d="M31.7,40h0c-1.67,0-3.03-1.36-3.03-3.04V5.19c0-1.68,1.36-3.04,3.03-3.04s3.03,1.36,3.03,3.04v31.77c0,1.68-1.36,3.03-3.03,3.03" fill="#fff"/>
    </g>
  </g>
</svg>