<?xml version="1.0" encoding="UTF-8"?>
<svg id="Capa_1" xmlns="http://www.w3.org/2000/svg" width="48" height="48" viewBox="0 0 48 48">
  <g id="Grupo_823">
    <path id="Rectángulo_403" d="M24,.5h0c12.98,0,23.5,10.52,23.5,23.5h0c0,12.98-10.52,23.5-23.5,23.5h0C11.02,47.5.5,36.98.5,24h0C.5,11.02,11.02.5,24,.5Z" fill="#0074e8"/>
    <path id="Trazado_53" d="M10.14,25.54h27.73c.85,0,1.54-.69,1.54-1.54s-.69-1.54-1.54-1.54H10.14c-.85,0-1.54.69-1.54,1.54s.69,1.54,1.54,1.54ZM10.14,16.3h27.73c.85,0,1.54-.69,1.54-1.54s-.69-1.54-1.54-1.54H10.14c-.85,0-1.54.69-1.54,1.54s.69,1.54,1.54,1.54ZM10.14,34.78h27.73c.85,0,1.54-.69,1.54-1.54s-.69-1.54-1.54-1.54H10.14c-.85,0-1.54.69-1.54,1.54s.69,1.54,1.54,1.54Z" fill="#fff"/>
  </g>
</svg>