<?xml version="1.0" encoding="UTF-8"?>
<svg id="Capa_1" xmlns="http://www.w3.org/2000/svg" width="48" height="48" viewBox="0 0 48 48">
  <g id="Grupo_838">
    <path id="Rectángulo_403" d="M24,.5h0c12.98,0,23.5,10.52,23.5,23.5h0c0,12.98-10.52,23.5-23.5,23.5h0C11.02,47.5.5,36.98.5,24h0C.5,11.02,11.02.5,24,.5Z" fill="#7f7f7f"/>
    <path id="Trazado_53" d="M14.88,25.01h18.25c.56,0,1.01-.45,1.01-1.01s-.45-1.01-1.01-1.01H14.88c-.56,0-1.01.45-1.01,1.01s.45,1.01,1.01,1.01ZM14.88,18.93h18.25c.56,0,1.01-.46,1.01-1.02s-.45-1.01-1.01-1.01H14.88c-.56,0-1.01.46-1.01,1.02s.45,1.01,1.01,1.01ZM14.88,31.1h18.25c.56,0,1.01-.45,1.01-1.01s-.45-1.01-1.01-1.01H14.88c-.56,0-1.01.45-1.01,1.01s.45,1.01,1.01,1.01Z" fill="#fff"/>
  </g>
</svg>